<?xml version="1.0" encoding="utf-8"?>
<!-- Generator: Adobe Illustrator 25.0.0, SVG Export Plug-In . SVG Version: 6.00 Build 0)  -->
<svg version="1.1" id="Layer_1" xmlns="http://www.w3.org/2000/svg" xmlns:xlink="http://www.w3.org/1999/xlink" x="0px" y="0px"
	 viewBox="0 0 250 80" style="enable-background:new 0 0 250 80;" xml:space="preserve">
<style type="text/css">
	.st0{fill:#144668;}
</style>
<g>
	<g>
		<g>
			<path class="st0" d="M10.8,24.7H5.2v14.5H1V5.6h8.6c8.3,0,12.6,3.2,12.6,9.4c0,4.8-2.5,7.6-7.3,9L24,39.2h-5L10.8,24.7z
				 M10.2,21.5c4.8,0,7.6-1.8,7.6-6.4c0-4.3-2.4-6.1-8.2-6.1H5.2v12.6H10.2z"/>
			<path class="st0" d="M43.9,28.4c0,7.2-3.7,11.2-9.1,11.2c-5.4,0-9.1-3.9-9.1-11.2c0-7.2,3.7-11.3,9.1-11.3
				C40.2,17.1,43.9,21,43.9,28.4z M28.6,28.4c0,6.3,2.5,8.9,6.2,8.9c3.8,0,6.2-2.6,6.2-8.9c0-6.4-2.4-9-6.2-9
				C31.1,19.4,28.6,22,28.6,28.4z"/>
			<path class="st0" d="M61.5,19.2L60,21c-1.4-1.1-2.7-1.6-4.3-1.6c-3.4,0-6.2,2.3-6.2,9c0,6.4,2.7,8.9,6.2,8.9
				c2.1,0,3.4-0.9,4.7-1.8l1.4,1.7c-1.2,1.2-3.3,2.4-6.1,2.4c-5.2,0-9-4-9-11.3c0-7.4,4-11.3,9-11.3C58.3,17.1,59.8,17.8,61.5,19.2z
				"/>
			<path class="st0" d="M76.9,28.9h-9.5v10.3h-2.7V17.5h2.7v9.2h9.5v-9.2h2.8v21.7h-2.8V28.9z"/>
			<path class="st0" d="M95.2,33.6h-8.5L85,39.2h-2.8l7-21.7h3.5l7,21.7h-2.9L95.2,33.6z M94.5,31.4L91,19.7l-3.5,11.7H94.5z"/>
			<path class="st0" d="M141.4,39.2h-4.1l-1.3-15.4c-0.5-5.3-0.9-11.1-0.9-13.9l-7.6,25.5h-4l-7.9-25.5c0,3.8-0.3,9.2-0.8,14.2
				l-1.2,15.1h-4l2.8-33.6h5.8l7.4,24.9l7-24.9h5.8L141.4,39.2z"/>
			<path class="st0" d="M156.3,33.6h-8.5l-1.7,5.6h-2.8l7-21.7h3.5l7,21.7h-2.9L156.3,33.6z M155.6,31.4L152,19.7l-3.5,11.7H155.6z"
				/>
			<path class="st0" d="M169.7,29.9h-3.6v9.4h-2.7V17.5h5.6c5.4,0,8.2,2.1,8.2,6.1c0,3.1-1.6,4.9-4.7,5.8l5.9,9.8H175L169.7,29.9z
				 M169.3,27.7c3.1,0,4.9-1.2,4.9-4.2c0-2.7-1.6-4-5.3-4h-2.8v8.1H169.3z"/>
			<path class="st0" d="M198.9,40.1l-1.8,2.3c-2.4-2.2-4.3-2.9-8.3-2.9c-5.3,0-9-3.9-9-11.1c0-7.2,3.7-11.3,9.1-11.3
				c5.4,0,9.1,4,9.1,11.3c0,5.5-2,8.2-5.1,9.7C195.4,38.1,197.3,38.9,198.9,40.1z M188.9,37.3c3.8,0,6.2-2.6,6.2-8.9
				c0-6.4-2.4-9-6.2-9c-3.7,0-6.2,2.7-6.2,9C182.7,34.7,185.2,37.3,188.9,37.3z"/>
			<path class="st0" d="M216.8,32.3c0,4.3-2.7,7.3-7.5,7.3c-4.9,0-7.5-3-7.5-7.3V17.5h2.7v14.6c0,3.4,1.5,5.2,4.7,5.2
				c3.3,0,4.7-1.8,4.7-5.2V17.5h2.8V32.3z"/>
			<path class="st0" d="M233.3,19.7h-8.6V27h7.4v2.2h-7.4V37h9.1v2.2H222V17.5h11.6L233.3,19.7z"/>
			<path class="st0" d="M249.4,19.6l-1.5,1.7c-1.6-1.3-3.2-1.9-5-1.9c-2.3,0-4,1.1-4,3.2c0,1.9,0.9,2.8,4.8,4
				c3.6,1.1,6.4,2.5,6.4,6.5c0,3.8-2.8,6.4-7.6,6.4c-3.1,0-5.5-1-7.3-2.8l1.5-1.7c1.6,1.4,3.4,2.2,5.8,2.2c2.7,0,4.8-1.4,4.8-4
				c0-2.2-1.1-3.2-4.8-4.4c-4.3-1.3-6.4-2.9-6.4-6.2c0-3.3,2.8-5.6,6.7-5.6C245.7,17.1,247.6,18,249.4,19.6z"/>
			<path class="st0" d="M43,60v12.6h-1.6V60H43z"/>
			<path class="st0" d="M46,66c0-0.9,0-1.7-0.1-2.4h1.5l0.1,1.5h0c0.4-0.9,1.5-1.7,3-1.7c1.3,0,3.2,0.7,3.2,3.8v5.4H52v-5.2
				c0-1.5-0.5-2.7-2.1-2.7c-1.1,0-1.9,0.8-2.2,1.7c-0.1,0.2-0.1,0.5-0.1,0.8v5.4H46V66z"/>
			<path class="st0" d="M62.8,72.2c-0.4,0.2-1.4,0.5-2.6,0.5c-2.7,0-4.5-1.8-4.5-4.6c0-2.8,1.9-4.8,4.9-4.8c1,0,1.8,0.2,2.3,0.5
				l-0.4,1.3c-0.4-0.2-1-0.4-1.9-0.4c-2.1,0-3.2,1.5-3.2,3.4c0,2.1,1.3,3.4,3.1,3.4c0.9,0,1.6-0.2,2-0.4L62.8,72.2z"/>
			<path class="st0" d="M65.5,68.4c0,2.2,1.5,3.1,3.1,3.1c1.2,0,1.9-0.2,2.5-0.5l0.3,1.2c-0.6,0.3-1.6,0.6-3,0.6
				c-2.8,0-4.4-1.8-4.4-4.6s1.6-4.9,4.2-4.9c3,0,3.7,2.6,3.7,4.3c0,0.3,0,0.6-0.1,0.8H65.5z M70.3,67.2c0-1-0.4-2.7-2.3-2.7
				c-1.7,0-2.4,1.5-2.5,2.7H70.3z"/>
			<path class="st0" d="M73.9,66c0-0.9,0-1.7-0.1-2.4h1.5l0.1,1.5h0c0.4-0.9,1.5-1.7,3-1.7c1.3,0,3.2,0.7,3.2,3.8v5.4H80v-5.2
				c0-1.5-0.5-2.7-2.1-2.7c-1.1,0-1.9,0.8-2.2,1.7c-0.1,0.2-0.1,0.5-0.1,0.8v5.4h-1.6V66z"/>
			<path class="st0" d="M86.2,60.9v2.6h2.4v1.3h-2.4v4.9c0,1.1,0.3,1.8,1.2,1.8c0.4,0,0.7-0.1,1-0.1l0.1,1.2
				c-0.3,0.1-0.8,0.2-1.5,0.2c-0.8,0-1.4-0.2-1.8-0.7c-0.5-0.5-0.6-1.3-0.6-2.4v-4.9h-1.4v-1.3h1.4v-2.2L86.2,60.9z"/>
			<path class="st0" d="M92.3,61c0,0.6-0.4,1-1,1c-0.6,0-1-0.4-1-1c0-0.6,0.4-1,1-1C91.9,60,92.3,60.4,92.3,61z M90.4,72.6v-9h1.6v9
				H90.4z"/>
			<path class="st0" d="M95.4,63.5l1.8,5.1c0.3,0.8,0.5,1.6,0.7,2.3H98c0.2-0.7,0.5-1.5,0.8-2.3l1.8-5.1h1.7l-3.5,9h-1.6l-3.4-9
				H95.4z"/>
			<path class="st0" d="M111.8,68c0,3.3-2.3,4.8-4.5,4.8c-2.4,0-4.3-1.8-4.3-4.7c0-3,2-4.8,4.5-4.8C110,63.3,111.8,65.2,111.8,68z
				 M104.6,68.1c0,2,1.1,3.5,2.7,3.5c1.6,0,2.7-1.5,2.7-3.5c0-1.5-0.8-3.5-2.7-3.5S104.6,66.4,104.6,68.1z"/>
			<path class="st0" d="M113.6,70.9c0.5,0.3,1.3,0.7,2.2,0.7c1.2,0,1.8-0.6,1.8-1.3c0-0.8-0.5-1.2-1.7-1.7c-1.6-0.6-2.4-1.5-2.4-2.6
				c0-1.5,1.2-2.7,3.1-2.7c0.9,0,1.7,0.3,2.2,0.6l-0.4,1.2c-0.4-0.2-1-0.5-1.8-0.5c-1,0-1.5,0.6-1.5,1.2c0,0.7,0.5,1.1,1.7,1.5
				c1.6,0.6,2.4,1.4,2.4,2.7c0,1.6-1.2,2.7-3.4,2.7c-1,0-1.9-0.2-2.5-0.6L113.6,70.9z"/>
			<path class="st0" d="M130.2,72.6l-0.1-1.1H130c-0.5,0.7-1.5,1.3-2.8,1.3c-1.8,0-2.8-1.3-2.8-2.6c0-2.2,1.9-3.4,5.4-3.4v-0.2
				c0-0.7-0.2-2.1-2.1-2.1c-0.8,0-1.7,0.3-2.4,0.7l-0.4-1.1c0.7-0.5,1.8-0.8,3-0.8c2.8,0,3.4,1.9,3.4,3.7v3.4c0,0.8,0,1.6,0.1,2.2
				H130.2z M127.4,59.6l1.6,2.7h-1.2l-2.3-2.7H127.4z M130,68c-1.8,0-3.8,0.3-3.8,2c0,1.1,0.7,1.6,1.6,1.6c1.2,0,1.9-0.7,2.2-1.5
				c0.1-0.2,0.1-0.4,0.1-0.5V68z"/>
			<path class="st0" d="M139.8,60v12.6h-1.6V60H139.8z"/>
			<path class="st0" d="M142.8,66c0-0.9,0-1.7-0.1-2.4h1.5l0.1,1.5h0c0.4-0.9,1.5-1.7,3-1.7c1.3,0,3.2,0.7,3.2,3.8v5.4h-1.6v-5.2
				c0-1.5-0.5-2.7-2.1-2.7c-1.1,0-1.9,0.8-2.2,1.7c-0.1,0.2-0.1,0.5-0.1,0.8v5.4h-1.6V66z"/>
			<path class="st0" d="M161.4,68c0,3.3-2.3,4.8-4.5,4.8c-2.4,0-4.3-1.8-4.3-4.7c0-3,2-4.8,4.5-4.8C159.6,63.3,161.4,65.2,161.4,68z
				 M154.2,68.1c0,2,1.1,3.5,2.7,3.5c1.6,0,2.7-1.5,2.7-3.5c0-1.5-0.8-3.5-2.7-3.5C155,64.6,154.2,66.4,154.2,68.1z"/>
			<path class="st0" d="M163.9,63.5l1.8,5.1c0.3,0.8,0.5,1.6,0.7,2.3h0.1c0.2-0.7,0.5-1.5,0.8-2.3l1.8-5.1h1.7l-3.5,9h-1.6l-3.4-9
				H163.9z"/>
			<path class="st0" d="M177.2,72.6l-0.1-1.1H177c-0.5,0.7-1.5,1.3-2.8,1.3c-1.8,0-2.8-1.3-2.8-2.6c0-2.2,1.9-3.4,5.4-3.4v-0.2
				c0-0.7-0.2-2.1-2.1-2.1c-0.8,0-1.7,0.3-2.4,0.7l-0.4-1.1c0.7-0.5,1.8-0.8,3-0.8c2.8,0,3.4,1.9,3.4,3.7v3.4c0,0.8,0,1.6,0.1,2.2
				H177.2z M177,68c-1.8,0-3.8,0.3-3.8,2c0,1.1,0.7,1.6,1.6,1.6c1.2,0,1.9-0.7,2.2-1.5c0.1-0.2,0.1-0.4,0.1-0.5V68z"/>
			<path class="st0" d="M187.7,72.2c-0.4,0.2-1.3,0.5-2.3,0.5l-0.5,0.7c0.7,0.1,1.3,0.6,1.3,1.3c0,1.1-0.9,1.5-1.9,1.5
				c-0.5,0-1-0.1-1.3-0.3l0.3-0.8c0.3,0.2,0.7,0.3,1,0.3c0.4,0,0.8-0.1,0.8-0.6c0-0.5-0.6-0.7-1.5-0.8l0.8-1.4
				c-2.3-0.3-3.8-2.1-3.8-4.6c0-2.8,1.9-4.8,4.9-4.8c1,0,1.8,0.2,2.3,0.5l-0.4,1.3c-0.4-0.2-1-0.4-1.9-0.4c-2.1,0-3.2,1.5-3.2,3.4
				c0,2.1,1.3,3.4,3.1,3.4c0.9,0,1.6-0.2,2-0.4L187.7,72.2z"/>
			<path class="st0" d="M194.6,72.6l-0.1-1.1h-0.1c-0.5,0.7-1.5,1.3-2.8,1.3c-1.8,0-2.8-1.3-2.8-2.6c0-2.2,1.9-3.4,5.4-3.4v-0.2
				c0-0.7-0.2-2.1-2.1-2.1c-0.8,0-1.7,0.3-2.4,0.7l-0.4-1.1c0.7-0.5,1.8-0.8,3-0.8c2.8,0,3.4,1.9,3.4,3.7v3.4c0,0.8,0,1.6,0.1,2.2
				H194.6z M190.4,62c0-1.2,0.5-1.9,1.3-1.9c0.4,0,0.7,0.2,1.2,0.4c0.3,0.2,0.6,0.3,0.8,0.3c0.3,0,0.5-0.2,0.5-0.8h0.9
				c0,1.3-0.4,1.9-1.3,1.9c-0.4,0-0.7-0.2-1.1-0.4c-0.4-0.2-0.6-0.3-0.8-0.3c-0.3,0-0.4,0.3-0.5,0.8H190.4z M194.3,68
				c-1.8,0-3.8,0.3-3.8,2c0,1.1,0.7,1.6,1.6,1.6c1.2,0,1.9-0.7,2.2-1.5c0.1-0.2,0.1-0.4,0.1-0.5V68z"/>
			<path class="st0" d="M206.8,68c0,3.3-2.3,4.8-4.5,4.8c-2.4,0-4.3-1.8-4.3-4.7c0-3,2-4.8,4.5-4.8C205,63.3,206.8,65.2,206.8,68z
				 M199.6,68.1c0,2,1.1,3.5,2.7,3.5c1.6,0,2.7-1.5,2.7-3.5c0-1.5-0.8-3.5-2.7-3.5S199.6,66.4,199.6,68.1z"/>
		</g>
		<g>
			<path class="st0" d="M10.8,24.7H5.2v14.5H1V5.6h8.6c8.3,0,12.6,3.2,12.6,9.4c0,4.8-2.5,7.6-7.3,9L24,39.2h-5L10.8,24.7z
				 M10.2,21.5c4.8,0,7.6-1.8,7.6-6.4c0-4.3-2.4-6.1-8.2-6.1H5.2v12.6H10.2z"/>
			<path class="st0" d="M43.9,28.4c0,7.2-3.7,11.2-9.1,11.2c-5.4,0-9.1-3.9-9.1-11.2c0-7.2,3.7-11.3,9.1-11.3
				C40.2,17.1,43.9,21,43.9,28.4z M28.6,28.4c0,6.3,2.5,8.9,6.2,8.9c3.8,0,6.2-2.6,6.2-8.9c0-6.4-2.4-9-6.2-9
				C31.1,19.4,28.6,22,28.6,28.4z"/>
			<path class="st0" d="M61.5,19.2L60,21c-1.4-1.1-2.7-1.6-4.3-1.6c-3.4,0-6.2,2.3-6.2,9c0,6.4,2.7,8.9,6.2,8.9
				c2.1,0,3.4-0.9,4.7-1.8l1.4,1.7c-1.2,1.2-3.3,2.4-6.1,2.4c-5.2,0-9-4-9-11.3c0-7.4,4-11.3,9-11.3C58.3,17.1,59.8,17.8,61.5,19.2z
				"/>
			<path class="st0" d="M76.9,28.9h-9.5v10.3h-2.7V17.5h2.7v9.2h9.5v-9.2h2.8v21.7h-2.8V28.9z"/>
			<path class="st0" d="M95.2,33.6h-8.5L85,39.2h-2.8l7-21.7h3.5l7,21.7h-2.9L95.2,33.6z M94.5,31.4L91,19.7l-3.5,11.7H94.5z"/>
			<path class="st0" d="M141.4,39.2h-4.1l-1.3-15.4c-0.5-5.3-0.9-11.1-0.9-13.9l-7.6,25.5h-4l-7.9-25.5c0,3.8-0.3,9.2-0.8,14.2
				l-1.2,15.1h-4l2.8-33.6h5.8l7.4,24.9l7-24.9h5.8L141.4,39.2z"/>
			<path class="st0" d="M156.3,33.6h-8.5l-1.7,5.6h-2.8l7-21.7h3.5l7,21.7h-2.9L156.3,33.6z M155.6,31.4L152,19.7l-3.5,11.7H155.6z"
				/>
			<path class="st0" d="M169.7,29.9h-3.6v9.4h-2.7V17.5h5.6c5.4,0,8.2,2.1,8.2,6.1c0,3.1-1.6,4.9-4.7,5.8l5.9,9.8H175L169.7,29.9z
				 M169.3,27.7c3.1,0,4.9-1.2,4.9-4.2c0-2.7-1.6-4-5.3-4h-2.8v8.1H169.3z"/>
			<path class="st0" d="M198.9,40.1l-1.8,2.3c-2.4-2.2-4.3-2.9-8.3-2.9c-5.3,0-9-3.9-9-11.1c0-7.2,3.7-11.3,9.1-11.3
				c5.4,0,9.1,4,9.1,11.3c0,5.5-2,8.2-5.1,9.7C195.4,38.1,197.3,38.9,198.9,40.1z M188.9,37.3c3.8,0,6.2-2.6,6.2-8.9
				c0-6.4-2.4-9-6.2-9c-3.7,0-6.2,2.7-6.2,9C182.7,34.7,185.2,37.3,188.9,37.3z"/>
			<path class="st0" d="M216.8,32.3c0,4.3-2.7,7.3-7.5,7.3c-4.9,0-7.5-3-7.5-7.3V17.5h2.7v14.6c0,3.4,1.5,5.2,4.7,5.2
				c3.3,0,4.7-1.8,4.7-5.2V17.5h2.8V32.3z"/>
			<path class="st0" d="M233.3,19.7h-8.6V27h7.4v2.2h-7.4V37h9.1v2.2H222V17.5h11.6L233.3,19.7z"/>
			<path class="st0" d="M249.4,19.6l-1.5,1.7c-1.6-1.3-3.2-1.9-5-1.9c-2.3,0-4,1.1-4,3.2c0,1.9,0.9,2.8,4.8,4
				c3.6,1.1,6.4,2.5,6.4,6.5c0,3.8-2.8,6.4-7.6,6.4c-3.1,0-5.5-1-7.3-2.8l1.5-1.7c1.6,1.4,3.4,2.2,5.8,2.2c2.7,0,4.8-1.4,4.8-4
				c0-2.2-1.1-3.2-4.8-4.4c-4.3-1.3-6.4-2.9-6.4-6.2c0-3.3,2.8-5.6,6.7-5.6C245.7,17.1,247.6,18,249.4,19.6z"/>
			<path d="M43,60v12.6h-1.6V60H43z"/>
			<path d="M46,66c0-0.9,0-1.7-0.1-2.4h1.5l0.1,1.5h0c0.4-0.9,1.5-1.7,3-1.7c1.3,0,3.2,0.7,3.2,3.8v5.4H52v-5.2
				c0-1.5-0.5-2.7-2.1-2.7c-1.1,0-1.9,0.8-2.2,1.7c-0.1,0.2-0.1,0.5-0.1,0.8v5.4H46V66z"/>
			<path d="M62.8,72.2c-0.4,0.2-1.4,0.5-2.6,0.5c-2.7,0-4.5-1.8-4.5-4.6c0-2.8,1.9-4.8,4.9-4.8c1,0,1.8,0.2,2.3,0.5l-0.4,1.3
				c-0.4-0.2-1-0.4-1.9-0.4c-2.1,0-3.2,1.5-3.2,3.4c0,2.1,1.3,3.4,3.1,3.4c0.9,0,1.6-0.2,2-0.4L62.8,72.2z"/>
			<path d="M65.5,68.4c0,2.2,1.5,3.1,3.1,3.1c1.2,0,1.9-0.2,2.5-0.5l0.3,1.2c-0.6,0.3-1.6,0.6-3,0.6c-2.8,0-4.4-1.8-4.4-4.6
				s1.6-4.9,4.2-4.9c3,0,3.7,2.6,3.7,4.3c0,0.3,0,0.6-0.1,0.8H65.5z M70.3,67.2c0-1-0.4-2.7-2.3-2.7c-1.7,0-2.4,1.5-2.5,2.7H70.3z"
				/>
			<path d="M73.9,66c0-0.9,0-1.7-0.1-2.4h1.5l0.1,1.5h0c0.4-0.9,1.5-1.7,3-1.7c1.3,0,3.2,0.7,3.2,3.8v5.4H80v-5.2
				c0-1.5-0.5-2.7-2.1-2.7c-1.1,0-1.9,0.8-2.2,1.7c-0.1,0.2-0.1,0.5-0.1,0.8v5.4h-1.6V66z"/>
			<path d="M86.2,60.9v2.6h2.4v1.3h-2.4v4.9c0,1.1,0.3,1.8,1.2,1.8c0.4,0,0.7-0.1,1-0.1l0.1,1.2c-0.3,0.1-0.8,0.2-1.5,0.2
				c-0.8,0-1.4-0.2-1.8-0.7c-0.5-0.5-0.6-1.3-0.6-2.4v-4.9h-1.4v-1.3h1.4v-2.2L86.2,60.9z"/>
			<path d="M92.3,61c0,0.6-0.4,1-1,1c-0.6,0-1-0.4-1-1c0-0.6,0.4-1,1-1C91.9,60,92.3,60.4,92.3,61z M90.4,72.6v-9h1.6v9H90.4z"/>
			<path d="M95.4,63.5l1.8,5.1c0.3,0.8,0.5,1.6,0.7,2.3H98c0.2-0.7,0.5-1.5,0.8-2.3l1.8-5.1h1.7l-3.5,9h-1.6l-3.4-9H95.4z"/>
			<path d="M111.8,68c0,3.3-2.3,4.8-4.5,4.8c-2.4,0-4.3-1.8-4.3-4.7c0-3,2-4.8,4.5-4.8C110,63.3,111.8,65.2,111.8,68z M104.6,68.1
				c0,2,1.1,3.5,2.7,3.5c1.6,0,2.7-1.5,2.7-3.5c0-1.5-0.8-3.5-2.7-3.5S104.6,66.4,104.6,68.1z"/>
			<path d="M113.6,70.9c0.5,0.3,1.3,0.7,2.2,0.7c1.2,0,1.8-0.6,1.8-1.3c0-0.8-0.5-1.2-1.7-1.7c-1.6-0.6-2.4-1.5-2.4-2.6
				c0-1.5,1.2-2.7,3.1-2.7c0.9,0,1.7,0.3,2.2,0.6l-0.4,1.2c-0.4-0.2-1-0.5-1.8-0.5c-1,0-1.5,0.6-1.5,1.2c0,0.7,0.5,1.1,1.7,1.5
				c1.6,0.6,2.4,1.4,2.4,2.7c0,1.6-1.2,2.7-3.4,2.7c-1,0-1.9-0.2-2.5-0.6L113.6,70.9z"/>
			<path d="M130.2,72.6l-0.1-1.1H130c-0.5,0.7-1.5,1.3-2.8,1.3c-1.8,0-2.8-1.3-2.8-2.6c0-2.2,1.9-3.4,5.4-3.4v-0.2
				c0-0.7-0.2-2.1-2.1-2.1c-0.8,0-1.7,0.3-2.4,0.7l-0.4-1.1c0.7-0.5,1.8-0.8,3-0.8c2.8,0,3.4,1.9,3.4,3.7v3.4c0,0.8,0,1.6,0.1,2.2
				H130.2z M127.4,59.6l1.6,2.7h-1.2l-2.3-2.7H127.4z M130,68c-1.8,0-3.8,0.3-3.8,2c0,1.1,0.7,1.6,1.6,1.6c1.2,0,1.9-0.7,2.2-1.5
				c0.1-0.2,0.1-0.4,0.1-0.5V68z"/>
			<path d="M139.8,60v12.6h-1.6V60H139.8z"/>
			<path d="M142.8,66c0-0.9,0-1.7-0.1-2.4h1.5l0.1,1.5h0c0.4-0.9,1.5-1.7,3-1.7c1.3,0,3.2,0.7,3.2,3.8v5.4h-1.6v-5.2
				c0-1.5-0.5-2.7-2.1-2.7c-1.1,0-1.9,0.8-2.2,1.7c-0.1,0.2-0.1,0.5-0.1,0.8v5.4h-1.6V66z"/>
			<path d="M161.4,68c0,3.3-2.3,4.8-4.5,4.8c-2.4,0-4.3-1.8-4.3-4.7c0-3,2-4.8,4.5-4.8C159.6,63.3,161.4,65.2,161.4,68z M154.2,68.1
				c0,2,1.1,3.5,2.7,3.5c1.6,0,2.7-1.5,2.7-3.5c0-1.5-0.8-3.5-2.7-3.5C155,64.6,154.2,66.4,154.2,68.1z"/>
			<path d="M163.9,63.5l1.8,5.1c0.3,0.8,0.5,1.6,0.7,2.3h0.1c0.2-0.7,0.5-1.5,0.8-2.3l1.8-5.1h1.7l-3.5,9h-1.6l-3.4-9H163.9z"/>
			<path d="M177.2,72.6l-0.1-1.1H177c-0.5,0.7-1.5,1.3-2.8,1.3c-1.8,0-2.8-1.3-2.8-2.6c0-2.2,1.9-3.4,5.4-3.4v-0.2
				c0-0.7-0.2-2.1-2.1-2.1c-0.8,0-1.7,0.3-2.4,0.7l-0.4-1.1c0.7-0.5,1.8-0.8,3-0.8c2.8,0,3.4,1.9,3.4,3.7v3.4c0,0.8,0,1.6,0.1,2.2
				H177.2z M177,68c-1.8,0-3.8,0.3-3.8,2c0,1.1,0.7,1.6,1.6,1.6c1.2,0,1.9-0.7,2.2-1.5c0.1-0.2,0.1-0.4,0.1-0.5V68z"/>
			<path d="M187.7,72.2c-0.4,0.2-1.3,0.5-2.3,0.5l-0.5,0.7c0.7,0.1,1.3,0.6,1.3,1.3c0,1.1-0.9,1.5-1.9,1.5c-0.5,0-1-0.1-1.3-0.3
				l0.3-0.8c0.3,0.2,0.7,0.3,1,0.3c0.4,0,0.8-0.1,0.8-0.6c0-0.5-0.6-0.7-1.5-0.8l0.8-1.4c-2.3-0.3-3.8-2.1-3.8-4.6
				c0-2.8,1.9-4.8,4.9-4.8c1,0,1.8,0.2,2.3,0.5l-0.4,1.3c-0.4-0.2-1-0.4-1.9-0.4c-2.1,0-3.2,1.5-3.2,3.4c0,2.1,1.3,3.4,3.1,3.4
				c0.9,0,1.6-0.2,2-0.4L187.7,72.2z"/>
			<path d="M194.6,72.6l-0.1-1.1h-0.1c-0.5,0.7-1.5,1.3-2.8,1.3c-1.8,0-2.8-1.3-2.8-2.6c0-2.2,1.9-3.4,5.4-3.4v-0.2
				c0-0.7-0.2-2.1-2.1-2.1c-0.8,0-1.7,0.3-2.4,0.7l-0.4-1.1c0.7-0.5,1.8-0.8,3-0.8c2.8,0,3.4,1.9,3.4,3.7v3.4c0,0.8,0,1.6,0.1,2.2
				H194.6z M190.4,62c0-1.2,0.5-1.9,1.3-1.9c0.4,0,0.7,0.2,1.2,0.4c0.3,0.2,0.6,0.3,0.8,0.3c0.3,0,0.5-0.2,0.5-0.8h0.9
				c0,1.3-0.4,1.9-1.3,1.9c-0.4,0-0.7-0.2-1.1-0.4c-0.4-0.2-0.6-0.3-0.8-0.3c-0.3,0-0.4,0.3-0.5,0.8H190.4z M194.3,68
				c-1.8,0-3.8,0.3-3.8,2c0,1.1,0.7,1.6,1.6,1.6c1.2,0,1.9-0.7,2.2-1.5c0.1-0.2,0.1-0.4,0.1-0.5V68z"/>
			<path d="M206.8,68c0,3.3-2.3,4.8-4.5,4.8c-2.4,0-4.3-1.8-4.3-4.7c0-3,2-4.8,4.5-4.8C205,63.3,206.8,65.2,206.8,68z M199.6,68.1
				c0,2,1.1,3.5,2.7,3.5c1.6,0,2.7-1.5,2.7-3.5c0-1.5-0.8-3.5-2.7-3.5S199.6,66.4,199.6,68.1z"/>
		</g>
	</g>
	<rect x="0.5" y="48.6" width="250" height="1.3"/>
</g>
</svg>
